<svg data-position="arm" class="arm" xmlns="http://www.w3.org/2000/svg" width="156.344" height="119.25" viewBox="0 0 156.344 119.25">
    <path d="M21.12 56.5a1.678 1.678 0 0 1-.427.33l.935 8.224 12.977-13.89 1.2-8.958A168.2 168.2 0 0 0 21.12 56.5zm1.387 12.522l-18.07 48.91 5.757 1.333 19.125-39.44 3.518-22.047zm-5.278-18.96l2.638 18.74-17.2 46.023L.01 113.05l6.644-35.518zm118.015 6.44a1.678 1.678 0 0 0 .426.33l-.934 8.222-12.977-13.89-1.2-8.958A168.2 168.2 0 0 1 135.24 56.5zm-1.39 12.52l18.073 48.91-5.758 1.333-19.132-39.44-3.52-22.05zm5.28-18.96l-2.64 18.74 17.2 46.023 2.658-1.775-6.643-35.518zm-103.1-12.323a1.78 1.78 0 0 1 .407-.24l3.666-27.345L33.07.015l-7.258 10.58-6.16 37.04.566 4.973a151.447 151.447 0 0 1 15.808-14.87zm84.3 0a1.824 1.824 0 0 0-.407-.24l-3.666-27.345L123.3.015l7.258 10.58 6.16 37.04-.566 4.973a151.447 151.447 0 0 0-15.822-14.87zM22.288 8.832l-3.3 35.276-2.2-26.238zm111.79 0l3.3 35.276 2.2-26.238z"/></svg>
