<svg data-position="hands" class="hands" xmlns="http://www.w3.org/2000/svg" width="205" height="38.938" viewBox="0 0 205 38.938"><path d="M21.255-.002l2.88 6.9 8.412 1.335.664 12.458-4.427 17.8-2.878-.22 2.8-11.847-2.99-.084-4.676 12.6-3.544-.446 4.4-12.736-3.072-.584-5.978 13.543-4.428-.445 6.088-14.1-2.1-1.25-7.528 12.012-3.764-.445L12.4 12.9l-1.107-1.78L.665 15.57 0 13.124l8.635-7.786zm162.49 0l-2.88 6.9-8.412 1.335-.664 12.458 4.427 17.8 2.878-.22-2.8-11.847 2.99-.084 4.676 12.6 3.544-.446-4.4-12.736 3.072-.584 5.978 13.543 4.428-.445-6.088-14.1 2.1-1.25 7.528 12.012 3.764-.445L192.6 12.9l1.107-1.78 10.628 4.45.665-2.447-8.635-7.786z"/></svg>
