<svg data-position="legs" class="legs" xmlns="http://www.w3.org/2000/svg" width="93.626" height="286.625" viewBox="0 0 93.626 286.625"><path d="M17.143 138.643l-.664 5.99 4.647 5.77 1.55 9.1 3.1 1.33 2.655-13.755 1.77-4.88-1.55-3.107zm20.582.444l-3.32 9.318-7.082 13.755 1.77 12.647 5.09-14.2 4.205-7.982zm-26.557-12.645l5.09 27.29-3.32-1.777-2.656 8.875zm22.795 42.374l-1.55 4.88-3.32 20.634-.442 27.51 4.65 26.847-.223-34.39 4.87-13.754.663-15.087zM23.34 181.24l1.106 41.267 8.853 33.28-9.628-4.55-16.045-57.8 5.533-36.384zm15.934 80.536l-.664 18.415-1.55 6.435h-4.647l-1.327-4.437-1.55-.222.332 4.437-5.864-1.778-1.55-.887-6.64-1.442-.22-5.214 6.418-10.87 4.426-5.548 10.844-4.437zM13.63 3.076v22.476l15.71 31.073 9.923 30.85L38.23 66.1zm25.49 30.248l.118-.148-.793-2.024L21.9 12.992l-1.242-.44L31.642 40.93zM32.865 44.09l6.812 17.6 2.274-21.596-1.344-3.43zM6.395 61.91l.827 25.34 12.816 35.257-3.928 10.136L3.5 88.133zM30.96 74.69l.345.826 6.47 15.48-4.177 38.342-6.594-3.526 5.715-35.7zm45.5 63.953l.663 5.99-4.647 5.77-1.55 9.1-3.1 1.33-2.655-13.755-1.77-4.88 1.55-3.107zm-20.582.444l3.32 9.318 7.08 13.755-1.77 12.647-5.09-14.2-4.2-7.987zm3.762 29.73l1.55 4.88 3.32 20.633.442 27.51-4.648 26.847.22-34.39-4.867-13.754-.67-15.087zm10.623 12.424l-1.107 41.267-8.852 33.28 9.627-4.55 16.046-57.8-5.533-36.384zM54.33 261.777l.663 18.415 1.546 6.435h4.648l1.328-4.437 1.55-.222-.333 4.437 5.863-1.778 1.55-.887 6.638-1.442.222-5.214-6.418-10.868-4.426-5.547-10.844-4.437zm25.643-258.7v22.476L64.26 56.625l-9.923 30.85L55.37 66.1zM54.48 33.326l-.118-.15.793-2.023L71.7 12.993l1.24-.44L61.96 40.93zm6.255 10.764l-6.812 17.6-2.274-21.595 1.344-3.43zm26.47 17.82l-.827 25.342-12.816 35.256 3.927 10.136 12.61-44.51zM62.64 74.693l-.346.825-6.47 15.48 4.178 38.342 6.594-3.527-5.715-35.7zm19.792 51.75l-5.09 27.29 3.32-1.776 2.655 8.875zM9.495-.007l.827 21.373-7.028 42.308-3.306-34.155zm2.068 27.323L26.24 59.707l3.307 26-6.2 36.58L9.91 85.046l-.827-38.342zM84.103-.01l-.826 21.375 7.03 42.308 3.306-34.155zm-2.066 27.325L67.36 59.707l-3.308 26 6.2 36.58 13.436-37.24.827-38.34z"/></svg>
