    <svg data-position="shoulder" class="shoulder" xmlns="http://www.w3.org/2000/svg" width="109.532" height="46.594" viewBox="0 0 109.532 46.594"><path d="M38.244-.004l1.98 9.232-11.653 2.857-7.474-2.637zm33.032 0l-1.98 9.232 11.653 2.857 7.474-2.637zm21.238 10.54l4.044-2.187 12.656 14 .07 5.33S92.76 10.66 92.515 10.535zm-1.285.58c-.008.28 17.762 18.922 17.762 18.922l.537 16.557-6.157-10.55L91.5 30.988 83.148 15.6zm-74.224-.58L12.962 8.35l-12.656 14-.062 5.325s16.52-17.015 16.764-17.14zm1.285.58C18.3 11.396.528 30.038.528 30.038L-.01 46.595l6.157-10.55 11.87-5.056L26.374 15.6z"/></svg>
