<svg data-position="stomach" class="stomach" xmlns="http://www.w3.org/2000/svg" width="75.25" height="107.594" viewBox="0 0 75.25 107.594"><path d="M19.25 7.49l16.6-7.5-.5 12.16-14.943 7.662zm-10.322 8.9l6.9 3.848-.8-9.116zm5.617-8.732L1.32 2.15 6.3 15.6zm-8.17 9.267l9.015 5.514 1.54 11.028-8.795-5.735zm15.53 5.89l.332 8.662 12.286-2.665.664-11.826zm14.61 84.783L33.28 76.062l-.08-20.53-11.654-5.736-1.32 37.5zM22.735 35.64L22.57 46.3l11.787 3.166.166-16.657zm-14.16-5.255L16.49 35.9l1.1 11.25-8.8-7.06zm8.79 22.74l-9.673-7.28-.84 9.78L-.006 68.29l10.564 14.594 5.5.883 1.98-20.735zM56 7.488l-16.6-7.5.5 12.16 14.942 7.66zm10.32 8.9l-6.9 3.847.8-9.116zm-5.617-8.733L73.93 2.148l-4.98 13.447zm8.17 9.267l-9.015 5.514-1.54 11.03 8.8-5.736zm-15.53 5.89l-.332 8.662-12.285-2.665-.664-11.827zm-14.61 84.783l3.234-31.536.082-20.532 11.65-5.735 1.32 37.5zm13.78-71.957l.166 10.66-11.786 3.168-.166-16.657zm14.16-5.256l-7.915 5.514-1.1 11.25 8.794-7.06zm-8.79 22.743l9.673-7.28.84 9.78 6.862 12.66-10.564 14.597-5.5.883-1.975-20.74z"/></svg>
