<?xml version="1.0" encoding="UTF-8" standalone="no"?>
<svg
   data-position="head"
   class="head"
   width="35.538071"
   height="50.409664"
   viewBox="0 0 35.538071 50.409665"
   version="1.1"
   id="svg4"
   sodipodi:docname="head.svg"
   inkscape:version="1.2.2 (b0a8486541, 2022-12-01)"
   xmlns:inkscape="http://www.inkscape.org/namespaces/inkscape"
   xmlns:sodipodi="http://sodipodi.sourceforge.net/DTD/sodipodi-0.dtd"
   xmlns="http://www.w3.org/2000/svg"
   xmlns:svg="http://www.w3.org/2000/svg">
  <defs
     id="defs8" />
  <sodipodi:namedview
     id="namedview6"
     pagecolor="#ffffff"
     bordercolor="#000000"
     borderopacity="0.25"
     inkscape:showpageshadow="2"
     inkscape:pageopacity="0.0"
     inkscape:pagecheckerboard="0"
     inkscape:deskcolor="#d1d1d1"
     showgrid="false"
     inkscape:zoom="1.0194042"
     inkscape:cx="-536.58794"
     inkscape:cy="184.42145"
     inkscape:window-width="1920"
     inkscape:window-height="1006"
     inkscape:window-x="0"
     inkscape:window-y="0"
     inkscape:window-maximized="1"
     inkscape:current-layer="svg4" />
  <path
     d="m 9.9942583,36.335017 5.5251587,6.654879 2.492597,7.417647 -5.810204,-3.914634 -2.901963,-8.406385 z m 17.0149737,0 -5.52516,6.654879 -2.496363,7.419769 5.810205,-3.914634 2.901962,-8.406386 z m 3.836219,-14.732921 0.06782,-6.24591 L 17.62777,7.5364663 5.0988501,13.861941 l -0.020719,7.45637 -2.0342631,0.114044 0.9179298,5.162226 3.2698896,0.960093 1.4817472,6.168996 6.1027894,5.844368 6.816032,-0.171861 6.002332,-5.500645 1.204235,-6.339797 3.26926,-0.960093 0.842584,-5.048181 z M 3.7941519,20.62609 3.6327921,13.295433 17.720685,6.3122145 32.549461,14.669269 32.413845,20.169913 35.538069,11.107376 26.717903,1.2603207 16.002867,0 6.7815042,1.9482992 0,12.950649 Z"
     id="path2"
     style="stroke-width:0.577097" />
</svg>
