<?xml version="1.0" encoding="UTF-8" standalone="no"?>
<svg
   data-position="left_hand"
   class="arm"
   width="67.629616"
   height="133.42741"
   viewBox="0 0 67.629619 133.42741"
   version="1.1"
   id="svg781"
   sodipodi:docname="left_hend.svg"
   inkscape:version="1.2.2 (b0a8486541, 2022-12-01)"
   xmlns:inkscape="http://www.inkscape.org/namespaces/inkscape"
   xmlns:sodipodi="http://sodipodi.sourceforge.net/DTD/sodipodi-0.dtd"
   xmlns="http://www.w3.org/2000/svg"
   xmlns:svg="http://www.w3.org/2000/svg">
  <defs
     id="defs785" />
  <sodipodi:namedview
     id="namedview783"
     pagecolor="#ffffff"
     bordercolor="#000000"
     borderopacity="0.25"
     inkscape:showpageshadow="2"
     inkscape:pageopacity="0.0"
     inkscape:pagecheckerboard="0"
     inkscape:deskcolor="#d1d1d1"
     showgrid="false"
     inkscape:zoom="3.312369"
     inkscape:cx="10.264557"
     inkscape:cy="108.07975"
     inkscape:window-width="1920"
     inkscape:window-height="1006"
     inkscape:window-x="0"
     inkscape:window-y="0"
     inkscape:window-maximized="1"
     inkscape:current-layer="svg781" />
  <path
     id="path929"
     style="stroke-width:1.02938"
     d="M 2.1941758,0 0,8.8277192 12.913522,11.559608 21.19598,9.038085 Z m 17.2965872,10.806682 3.567819,-1.5136078 11.165746,9.6893028 0.06176,3.688855 c 0,0 -14.57829,-11.778731 -14.794441,-11.865242 z m -1.133693,0.401414 c -0.0073,0.193786 15.670515,13.095784 15.670515,13.095784 l 0.47377,11.458984 -5.432012,-7.301581 -10.473182,-3.499915 -7.368544,-10.649927 z m 32.414406,95.267804 -2.284242,4.77544 -6.671873,0.92394 -0.526644,8.6221 3.511226,12.31925 2.282649,-0.15226 -2.220786,-8.19922 2.371477,-0.0581 3.708713,8.72037 2.810885,-0.30867 -3.489813,-8.8145 2.436525,-0.40418 4.741372,9.37302 3.512018,-0.30799 -4.828624,-9.75851 1.665592,-0.86511 5.970741,8.31342 2.985366,-0.30798 -8.951354,-14.9416 0.878007,-1.23193 8.429463,3.07982 0.527444,-1.69355 -6.848747,-5.38864 z M 32.181377,66.461395 a 1.7192753,1.2878691 0 0 0 0.436481,0.253276 L 31.660885,73.025074 18.364676,62.364464 17.135161,55.489178 A 172.33737,129.09392 0 0 1 32.177279,66.45986 Z m -3.324361,7.394585 16.902083,35.71478 -5.38495,0.97337 L 22.481683,81.744484 19.189736,65.643263 Z m 6.560944,-11.206765 -2.134027,12.969824 13.903509,31.852201 2.148577,-1.22847 -5.369826,-24.581759 z m -17.8423,-8.949548 a 1.7689309,1.3140083 0 0 0 -0.394714,-0.172896 l -3.555313,-19.699318 6.826477,-7.304129 7.03887,7.621824 5.974022,26.68359 -0.548914,3.582546 A 146.8746,109.10231 0 0 0 17.57178,53.698947 Z M 29.620803,32.24272 34.597354,60.386118 37.915055,39.453289 Z" />
</svg>
