<?xml version="1.0" encoding="UTF-8" standalone="no"?>
<svg
   data-position="left_leg"
   class="legs"
   width="31.06184"
   height="174.95212"
   viewBox="0 0 31.06184 174.95212"
   version="1.1"
   id="svg590"
   sodipodi:docname="left_legs.svg"
   inkscape:version="1.2.2 (b0a8486541, 2022-12-01)"
   xmlns:inkscape="http://www.inkscape.org/namespaces/inkscape"
   xmlns:sodipodi="http://sodipodi.sourceforge.net/DTD/sodipodi-0.dtd"
   xmlns="http://www.w3.org/2000/svg"
   xmlns:svg="http://www.w3.org/2000/svg">
  <defs
     id="defs594" />
  <sodipodi:namedview
     id="namedview592"
     pagecolor="#ffffff"
     bordercolor="#000000"
     borderopacity="0.25"
     inkscape:showpageshadow="2"
     inkscape:pageopacity="0.0"
     inkscape:pagecheckerboard="0"
     inkscape:deskcolor="#d1d1d1"
     showgrid="false"
     inkscape:zoom="2.7038814"
     inkscape:cx="38.093387"
     inkscape:cy="114.65"
     inkscape:window-width="1920"
     inkscape:window-height="1006"
     inkscape:window-x="0"
     inkscape:window-y="0"
     inkscape:window-maximized="1"
     inkscape:current-layer="svg590" />
  <path
     id="path588"
     style="stroke-width:0.672165"
     d="m 18.36337,84.62777 0.49151,3.656113 -3.4398,3.521832 -1.14735,5.55437 -2.29468,0.81179 -1.96528,-8.395634 -1.3101896,-2.978609 1.14734,-1.896416 z m -15.2351996,0.271005 2.45753,5.687424 5.2422396,8.395636 -1.3101896,7.719345 -3.76772,-8.667245 -3.11263,-4.87197 z m 19.6580096,-7.718128 -3.76771,16.656988 2.45753,-1.08463 1.96602,5.41704 z m -16.8732996,25.863813 1.14734,2.9786 2.45753,12.59437 0.32717,16.79127 -3.44202,16.3866 0.16507,-20.99062 -3.60487,-8.39502 -0.49076,-9.20865 z m 7.8633496,7.58323 -0.81868,25.18813 -6.5531696,20.3131 7.1268396,-2.77718 11.87682,-35.27937 -4.09563,-22.207695 z m -11.7946596,49.15674 0.49151,11.23996 1.14734,3.92772 h 3.4398 l 0.98227,-2.7082 1.14734,-0.1355 -0.24575,2.7082 4.3406396,-1.08524 1.14734,-0.54139 4.91506,-0.88016 0.16285,-3.18246 -4.75073,-6.63472 -3.27621,-3.38633 -8.0269396,-2.70821 z M 20.96376,1.88177 V 15.600441 L 9.3349104,34.56646 l -7.3452,18.829904 0.76465,-13.046651 z m -18.8681996,18.462464 -0.0873,-0.09033 0.58699,-1.235389 L 14.84219,7.9341999 15.76154,7.6656379 7.6309704,24.986711 Z m 4.63008,6.571241 L 1.68326,37.657983 0,24.476437 0.99486,22.382869 Z M 26.31925,37.792264 25.70709,53.259035 16.22043,74.778841 19.12802,80.96555 28.46219,53.797988 Z m -18.1834896,7.800525 -0.25538,0.504166 -4.78922,9.448527 3.0919,23.402799 L 11.06407,76.796117 6.8337104,55.005911 Z M 24.02457,0 23.41241,13.045433 28.61467,38.868956 31.06184,18.021778 Z M 22.4938,16.677133 11.62959,36.44762 9.1816904,52.317236 13.77105,74.644558 23.71738,51.913779 24.32954,28.510982 Z" />
</svg>
