<?xml version="1.0" encoding="UTF-8" standalone="no"?>
<svg
   data-position="right_hand"
   class="arm"
   width="67.629616"
   height="133.42743"
   viewBox="0 0 67.629619 133.42743"
   version="1.1"
   id="svg781"
   sodipodi:docname="right_hend.svg"
   inkscape:version="1.2.2 (b0a8486541, 2022-12-01)"
   xmlns:inkscape="http://www.inkscape.org/namespaces/inkscape"
   xmlns:sodipodi="http://sodipodi.sourceforge.net/DTD/sodipodi-0.dtd"
   xmlns="http://www.w3.org/2000/svg"
   xmlns:svg="http://www.w3.org/2000/svg">
  <defs
     id="defs785" />
  <sodipodi:namedview
     id="namedview783"
     pagecolor="#ffffff"
     bordercolor="#000000"
     borderopacity="0.25"
     inkscape:showpageshadow="2"
     inkscape:pageopacity="0.0"
     inkscape:pagecheckerboard="0"
     inkscape:deskcolor="#d1d1d1"
     showgrid="false"
     inkscape:zoom="3.312369"
     inkscape:cx="2.1132911"
     inkscape:cy="94.192404"
     inkscape:window-width="1920"
     inkscape:window-height="1006"
     inkscape:window-x="0"
     inkscape:window-y="0"
     inkscape:window-maximized="1"
     inkscape:current-layer="svg781" />
  <path
     id="path929"
     style="stroke-width:1.02938"
     d="m 65.435443,0 2.194176,8.827719 -12.913522,2.731889 -8.282458,-2.521523 z m -17.296587,10.806682 -3.567819,-1.513608 -11.165746,9.689303 -0.06176,3.688855 c 0,0 14.57829,-11.778731 14.794441,-11.865242 z m 1.133693,0.401414 c 0.0073,0.193786 -15.670515,13.095784 -15.670515,13.095784 l -0.47377,11.458984 5.432012,-7.301581 10.473182,-3.499915 7.368544,-10.649927 z m -32.414406,95.267804 2.284242,4.77545 6.671873,0.92394 0.526644,8.62209 -3.511226,12.31925 -2.282649,-0.15226 2.220786,-8.19922 -2.371477,-0.0581 -3.708713,8.72037 -2.810885,-0.30867 3.489813,-8.8145 -2.436525,-0.40418 -4.741372,9.37302 -3.5120178,-0.30799 4.8286238,-9.75851 -1.6655918,-0.8651 -5.970741,8.31342 L 0.88356,130.34693 9.8349152,115.40533 8.9569082,114.1734 0.52744,117.25322 0,115.55967 6.8487482,110.17103 Z M 35.448242,66.461395 a 1.7192753,1.2878691 0 0 1 -0.436481,0.253276 l 0.956973,6.310403 13.296209,-10.66061 1.229515,-6.875286 A 172.33737,129.09392 0 0 0 35.45234,66.45986 Z m 3.324361,7.394585 -16.902083,35.71478 5.38495,0.97337 17.892466,-28.799646 3.291947,-16.101221 z M 32.211659,62.649215 34.345686,75.619044 20.442177,107.47124 18.2936,106.24277 23.663426,81.661014 Z m 17.8423,-8.949548 a 1.7689309,1.3140083 0 0 1 0.394714,-0.172896 l 3.555313,-19.699318 -6.826477,-7.304129 -7.03887,7.621824 -5.974022,26.68359 0.548914,3.582546 A 146.8746,109.10231 0 0 1 50.057839,53.698947 Z M 38.008816,32.24272 33.032265,60.386118 29.714564,39.453289 Z" />
</svg>
