<?xml version="1.0" encoding="UTF-8" standalone="no"?>
<svg
   data-position="right_leg"
   class="legs"
   width="31.061838"
   height="174.9521"
   viewBox="0 0 31.061839 174.9521"
   version="1.1"
   id="svg590"
   sodipodi:docname="right_legs.svg"
   inkscape:version="1.2.2 (b0a8486541, 2022-12-01)"
   xmlns:inkscape="http://www.inkscape.org/namespaces/inkscape"
   xmlns:sodipodi="http://sodipodi.sourceforge.net/DTD/sodipodi-0.dtd"
   xmlns="http://www.w3.org/2000/svg"
   xmlns:svg="http://www.w3.org/2000/svg">
  <defs
     id="defs594" />
  <sodipodi:namedview
     id="namedview592"
     pagecolor="#ffffff"
     bordercolor="#000000"
     borderopacity="0.25"
     inkscape:showpageshadow="2"
     inkscape:pageopacity="0.0"
     inkscape:pagecheckerboard="0"
     inkscape:deskcolor="#d1d1d1"
     showgrid="false"
     inkscape:zoom="2.7038814"
     inkscape:cx="46.969516"
     inkscape:cy="123.15629"
     inkscape:window-width="1920"
     inkscape:window-height="1006"
     inkscape:window-x="0"
     inkscape:window-y="0"
     inkscape:window-maximized="1"
     inkscape:current-layer="svg590" />
  <path
     id="path588"
     style="stroke-width:0.672165"
     d="m 12.698469,84.62777 -0.491506,3.656113 3.4398,3.521832 1.147342,5.554365 2.29468,0.811793 1.965284,-8.395632 1.310189,-2.978609 -1.147341,-1.896416 z m 15.235201,0.271005 -2.457529,5.687424 -5.242236,8.395632 1.310189,7.719349 3.767718,-8.667247 3.112624,-4.871972 z M 8.2756556,77.180647 12.043374,93.837636 9.5858447,92.753008 7.6198213,98.170044 Z m 16.8733074,25.863813 -1.14734,2.9786 -2.457529,12.59437 -0.327177,16.79127 3.442021,16.3866 -0.16507,-20.99062 3.604871,-8.39502 0.490766,-9.20865 z m -7.863353,7.58323 0.818683,25.18813 6.553165,20.3131 -7.126835,-2.77718 L 5.6537979,118.07237 9.7494335,95.864676 Z m 11.794661,49.15674 -0.491506,11.23996 -1.147341,3.92772 h -3.439801 l -0.982271,-2.7082 -1.147341,-0.1355 0.245753,2.7082 -4.340649,-1.08524 -1.14734,-0.54139 -4.915058,-0.88016 -0.162849,-3.18246 4.75073,-6.63472 3.276213,-3.38633 8.026942,-2.70821 z M 10.098077,1.8817699 V 15.600441 l 11.628851,18.966019 7.3452,18.829904 -0.764647,-13.046651 z M 28.966276,20.344234 29.053622,20.2539 28.466629,19.018511 16.219694,7.9341963 15.300341,7.6656341 23.430913,24.986707 Z m -4.630073,6.571241 5.042376,10.742508 1.68326,-13.181546 -0.994856,-2.093568 z M 4.7425875,37.792264 5.3547491,53.259035 14.841405,74.778841 11.933822,80.96555 2.5996515,53.797988 Z m 18.1834955,7.800525 0.255377,0.504166 4.789221,9.448527 -3.091897,23.402799 -4.881009,-2.152164 4.230356,-21.790206 z M 7.0372686,0 7.6494303,13.045433 2.4471663,38.868956 0,18.021778 Z M 8.5680429,16.677133 19.432247,36.44762 21.880153,52.317236 17.290792,74.644558 7.3444602,51.913779 6.7322982,28.510982 Z" />
</svg>
