<?xml version="1.0" encoding="UTF-8" standalone="no"?>
<svg
   data-position="stomach"
   class="stomach"
   width="65.018707"
   height="85.179581"
   viewBox="0 0 65.018707 85.17958"
   version="1.1"
   id="svg702"
   sodipodi:docname="stomach.svg"
   inkscape:version="1.2.2 (b0a8486541, 2022-12-01)"
   xmlns:inkscape="http://www.inkscape.org/namespaces/inkscape"
   xmlns:sodipodi="http://sodipodi.sourceforge.net/DTD/sodipodi-0.dtd"
   xmlns="http://www.w3.org/2000/svg"
   xmlns:svg="http://www.w3.org/2000/svg">
  <defs
     id="defs706" />
  <sodipodi:namedview
     id="namedview704"
     pagecolor="#ffffff"
     bordercolor="#000000"
     borderopacity="0.25"
     inkscape:showpageshadow="2"
     inkscape:pageopacity="0.0"
     inkscape:pagecheckerboard="0"
     inkscape:deskcolor="#d1d1d1"
     showgrid="false"
     inkscape:zoom="7.2030038"
     inkscape:cx="37.623193"
     inkscape:cy="54.005247"
     inkscape:window-width="1920"
     inkscape:window-height="1006"
     inkscape:window-x="0"
     inkscape:window-y="0"
     inkscape:window-maximized="1"
     inkscape:current-layer="svg702" />
  <path
     d="M 16.634782,5.9382697 30.975111,0.00158312 30.543174,9.626931 17.634286,15.69185 Z m -8.9169203,7.0448683 5.9607393,3.045916 -0.6911,-7.2158449 z M 12.570249,6.0712515 1.1454986,1.7113489 5.4475975,12.357807 Z m -7.0578609,7.3353695 7.7878349,4.364652 1.330369,8.729304 -7.5977834,-4.539586 z m 13.4159829,4.662278 0.286807,6.856478 10.613571,-2.109503 0.573613,-9.360968 z m 12.621218,67.11068 -2.794636,-24.96258 -0.06911,-16.25069 -10.067603,-4.540378 -1.140315,29.683433 z m -11.904201,-56.958946 -0.14254,8.438011 10.182498,2.506073 0.143403,-13.184985 z M 7.4129137,24.060995 14.250487,28.426439 15.200749,37.331468 7.5986469,31.743067 Z M 15.006377,42.061029 6.6501118,36.298485 5.9244566,44.039924 0,54.065009 9.1259784,65.61701 13.877292,66.315955 15.587765,49.902996 Z M 48.382198,5.9366866 34.041869,0 34.473806,9.6253479 47.381831,15.688684 Z m 8.915194,7.0448684 -5.96074,3.045124 0.6911,-7.2158445 z M 52.445004,6.0688768 63.871482,1.7097657 59.569383,12.353849 Z m 7.05786,7.3353702 -7.787835,4.364652 -1.330368,8.730887 7.602103,-4.540378 z M 46.086882,18.066525 45.800075,24.923002 35.187367,22.813499 34.613755,13.45174 Z m -12.621218,67.11068 2.793773,-24.96258 0.07084,-16.252273 10.064147,-4.539587 1.140315,29.683433 z M 45.369865,28.21905 45.513268,36.657061 35.331635,39.164717 35.188231,25.979732 Z m 12.232474,-4.16043 -6.837573,4.364652 -0.950262,8.90503 7.596918,-5.588401 z m -7.593464,18.002409 8.356266,-5.762544 0.725656,7.741439 5.927912,10.021127 -9.125979,11.554375 -4.751314,0.698946 -1.706153,-16.416917 z"
     id="path700"
     style="stroke-width:0.826928" />
</svg>
